<?xml version="1.0" standalone="no"?>
<!DOCTYPE svg PUBLIC "-//W3C//DTD SVG 20010904//EN"
 "http://www.w3.org/TR/2001/REC-SVG-20010904/DTD/svg10.dtd">
<svg version="1.0" xmlns="http://www.w3.org/2000/svg"
 width="2424.000000pt" height="2424.000000pt" viewBox="0 0 2424.000000 2424.000000"
 preserveAspectRatio="xMidYMid meet">
<metadata>
Created by potrace 1.11, written by Peter Selinger 2001-2013
</metadata>
<g transform="translate(0.000000,2424.000000) scale(0.100000,-0.100000)"
fill="#000000" stroke="none">
<path d="M17998 19599 c-23 -13 -23 -90 0 -142 l18 -39 -32 -34 c-58 -61 -66
-152 -34 -390 86 -636 203 -886 599 -1284 158 -158 286 -241 394 -256 84 -12
136 51 122 150 -10 78 -39 121 -174 261 -116 120 -135 145 -232 310 -173 292
-197 336 -228 420 -43 119 -73 183 -120 254 -22 36 -53 101 -67 145 -40 127
-94 305 -94 312 0 23 426 -371 496 -460 110 -137 281 -400 339 -519 139 -288
203 -599 176 -860 -25 -240 -79 -419 -201 -672 -104 -215 -120 -256 -120 -308
0 -42 47 -158 69 -171 23 -14 50 6 107 82 84 109 141 201 374 605 147 254 197
326 253 366 43 30 59 35 137 41 48 4 104 14 124 21 31 11 44 11 94 -5 31 -10
62 -20 69 -22 22 -6 103 -118 145 -199 22 -44 48 -91 58 -105 33 -48 58 -106
113 -265 75 -219 116 -415 153 -735 31 -265 27 -1248 -5 -1320 -6 -14 -17 -95
-25 -181 -12 -137 -19 -171 -60 -291 -55 -163 -60 -225 -21 -263 29 -29 75
-33 98 -7 22 24 33 57 142 407 195 629 234 741 269 784 27 32 37 58 55 143 59
280 82 445 92 653 6 116 14 255 18 310 l7 100 28 -60 c46 -98 104 -359 155
-690 34 -215 36 -286 12 -399 -12 -54 -21 -131 -21 -170 0 -66 2 -75 28 -99
38 -37 73 -35 109 6 24 27 34 56 56 158 28 132 88 457 106 574 31 198 40 576
20 781 -42 434 -219 901 -467 1234 -241 324 -409 520 -544 637 -200 173 -531
427 -750 576 -143 97 -611 321 -708 339 -30 5 -78 23 -106 38 -32 19 -77 33
-125 40 -54 8 -85 19 -116 41 -32 23 -85 41 -215 73 -349 88 -522 114 -570 85z"/>
<path d="M11159 19535 c-41 -15 -81 -40 -224 -139 -73 -50 -154 -124 -300
-271 -129 -130 -216 -210 -245 -225 -79 -40 -327 -217 -460 -329 -36 -30 -112
-103 -170 -161 -84 -86 -119 -114 -175 -141 -136 -65 -235 -142 -235 -183 0
-57 46 -106 101 -106 28 0 494 273 539 316 23 22 52 37 85 44 60 13 83 27 155
96 59 55 86 71 250 144 58 25 141 70 185 99 103 67 249 140 299 148 l38 6 -17
-34 c-18 -36 -269 -286 -358 -358 -29 -22 -95 -69 -147 -104 -140 -92 -170
-150 -108 -202 31 -26 36 -27 120 -23 l88 6 248 121 c136 68 290 151 342 185
120 80 170 111 193 119 16 6 16 5 1 -25 -30 -58 -118 -139 -216 -200 -124 -76
-148 -103 -148 -170 0 -42 5 -54 30 -80 l30 -30 -57 6 c-32 3 -155 8 -273 11
-236 7 -391 -3 -546 -35 -54 -11 -175 -30 -268 -41 -228 -27 -495 -87 -1021
-230 -470 -128 -715 -209 -955 -312 -410 -177 -1145 -546 -1461 -734 -77 -46
-253 -190 -526 -429 -157 -138 -172 -154 -273 -291 -99 -134 -182 -196 -300
-223 -168 -39 -365 -198 -605 -487 -127 -153 -233 -302 -416 -583 -158 -243
-200 -298 -558 -740 -427 -528 -400 -497 -1071 -1195 -621 -645 -657 -685
-845 -934 -204 -269 -332 -474 -428 -686 -18 -40 -78 -121 -183 -245 -383
-455 -386 -460 -425 -625 -15 -65 -22 -139 -26 -268 -3 -98 -7 -177 -8 -175
-2 2 -8 48 -15 103 -18 151 -38 187 -106 187 -52 0 -69 -23 -114 -146 -27 -73
-52 -123 -77 -153 -62 -73 -73 -95 -73 -144 0 -57 26 -84 125 -130 52 -25 84
-33 127 -33 l57 -1 -17 -25 c-100 -153 -113 -200 -67 -245 19 -20 34 -25 72
-25 29 0 58 7 72 16 21 15 51 15 383 -1 198 -9 379 -14 402 -11 59 10 121 49
140 90 9 19 16 59 16 88 0 59 -9 73 -65 99 -34 16 -100 106 -146 198 -29 58
-31 69 -27 140 7 125 72 243 162 296 41 24 228 75 276 75 14 0 59 -20 100 -45
41 -24 83 -45 93 -45 46 0 117 61 117 101 0 15 -4 31 -10 34 -20 12 -48 134
-60 259 -39 399 56 805 262 1113 77 116 226 282 467 523 219 218 327 310 536
458 249 177 355 273 497 457 171 221 185 247 318 583 182 460 349 738 731
1217 175 219 504 461 662 486 38 6 81 21 111 40 40 24 68 32 135 40 108 11
380 11 626 -1 177 -8 195 -11 268 -39 125 -49 196 -40 232 29 21 40 19 73 -7
105 -25 32 -43 40 -231 106 -174 61 -220 86 -295 162 -73 74 -90 122 -63 181
39 87 325 360 471 451 123 76 378 207 473 244 100 38 167 55 357 87 85 14 197
39 247 55 113 36 157 41 643 74 689 46 871 64 1090 110 149 31 560 133 825
205 390 105 496 129 745 169 513 81 549 84 810 77 361 -10 598 -30 712 -60 68
-18 156 -30 297 -41 212 -16 309 -35 720 -136 380 -94 538 -159 943 -386 138
-78 213 -113 253 -121 41 -9 79 -28 145 -72 49 -34 125 -76 168 -95 224 -94
573 -221 706 -256 367 -98 801 -229 840 -254 23 -15 263 -52 555 -85 226 -26
701 -38 807 -22 154 25 367 103 471 173 26 17 74 57 106 88 66 64 74 97 31
136 -35 32 -71 32 -136 -1 -91 -46 -400 -104 -562 -105 -60 0 -93 4 -117 16
-23 13 -48 16 -88 12 -46 -3 -65 0 -102 20 -36 19 -73 26 -170 34 -128 11
-161 22 -267 85 -51 31 -94 43 -341 94 -275 57 -322 74 -631 222 -199 96 -299
133 -405 151 -80 14 -119 30 -360 147 -417 204 -558 268 -634 289 -75 21 -198
73 -466 199 -261 122 -524 201 -840 252 -179 29 -342 66 -480 110 -111 35
-732 125 -1030 150 -173 14 -833 50 -916 50 -36 0 -69 3 -72 7 -8 7 138 52
353 109 285 76 556 51 1016 -92 98 -31 211 -65 249 -75 66 -18 541 -105 705
-128 41 -6 104 -15 140 -21 74 -11 365 -12 425 -2 34 6 40 11 43 36 5 37 -19
61 -98 101 -92 46 -220 92 -484 175 -442 138 -622 227 -1072 527 -315 210
-778 582 -887 712 -73 88 -128 122 -243 151 -88 23 -163 25 -215 5z"/>
<path d="M11988 17156 c-116 -41 -209 -123 -255 -224 -47 -102 -43 -357 8
-472 46 -103 104 -127 165 -66 31 31 34 39 34 95 l0 62 60 28 c58 28 62 28
122 15 104 -21 220 -61 269 -92 48 -31 131 -120 214 -231 47 -62 52 -74 63
-151 21 -144 70 -211 229 -311 92 -57 118 -79 140 -117 72 -122 -6 -291 -210
-457 -146 -120 -178 -129 -411 -113 l-169 12 -23 -28 c-57 -65 -11 -132 143
-208 85 -42 88 -43 187 -42 127 0 338 48 441 98 119 59 243 187 346 358 147
244 178 509 92 771 -28 83 -134 277 -210 384 -56 79 -345 371 -433 438 -91 70
-255 167 -347 205 -178 75 -330 90 -455 46z"/>
<path d="M13873 16985 c-87 -24 -134 -54 -218 -139 -90 -91 -152 -186 -203
-314 -31 -79 -34 -94 -30 -165 6 -100 15 -110 110 -115 l72 -5 51 58 c45 51
56 58 98 62 165 19 364 -255 344 -472 -9 -87 -82 -328 -123 -405 -105 -194
-189 -316 -285 -410 -131 -130 -159 -170 -159 -230 0 -43 4 -52 37 -80 31 -28
42 -31 76 -27 55 8 141 52 297 154 272 179 416 294 515 413 143 173 257 367
284 485 14 65 10 447 -7 495 -6 19 -14 47 -17 62 -3 14 -24 54 -47 87 -24 34
-80 114 -124 179 -45 64 -98 134 -118 154 -81 83 -264 184 -387 213 -77 18
-99 18 -166 0z"/>
<path d="M10475 16903 c-153 -19 -279 -68 -354 -138 -72 -67 -85 -109 -78
-243 11 -194 43 -262 123 -262 52 0 85 34 103 107 16 64 49 96 140 135 137 57
248 41 382 -58 54 -39 105 -106 120 -157 6 -18 10 -99 9 -181 l0 -150 59 -58
c33 -31 106 -88 163 -124 175 -114 232 -175 268 -292 56 -180 -6 -364 -192
-572 -156 -175 -174 -216 -119 -271 59 -58 163 -28 341 100 111 80 350 298
388 356 70 106 105 245 105 420 1 149 -15 249 -61 389 -93 287 -282 559 -505
727 -132 99 -249 148 -587 244 -122 34 -199 42 -305 28z"/>
<path d="M8850 16630 c-67 -8 -107 -28 -186 -92 -110 -89 -196 -201 -270 -352
-55 -113 -58 -163 -15 -224 44 -60 67 -63 109 -16 105 121 106 122 167 139
118 35 261 20 312 -31 33 -33 27 -65 -27 -144 -51 -75 -54 -117 -9 -154 38
-32 57 -32 119 -1 41 21 63 25 132 25 158 -1 197 -20 245 -115 14 -27 42 -74
61 -104 25 -38 35 -64 33 -84 -2 -26 0 -28 27 -26 19 2 43 -6 68 -23 56 -39
153 -81 274 -118 197 -61 244 -92 287 -188 35 -75 43 -193 18 -278 -35 -124
-52 -132 -214 -99 -195 41 -277 32 -301 -31 -16 -40 3 -65 108 -148 121 -95
178 -129 257 -156 217 -71 379 -33 545 129 110 107 133 158 138 308 5 141 -20
245 -113 475 -116 283 -198 425 -349 605 -40 49 -80 102 -89 119 -9 17 -90
106 -179 196 l-163 165 -155 61 c-367 143 -481 172 -660 171 -63 -1 -140 -5
-170 -9z"/>
<path d="M15500 16343 c-98 -35 -183 -102 -270 -210 -114 -141 -143 -241 -85
-290 33 -29 73 -29 158 -3 77 24 102 18 141 -33 48 -62 86 -212 86 -336 0
-106 -52 -234 -136 -337 -24 -30 -44 -59 -44 -65 0 -26 -103 -116 -190 -166
-233 -136 -290 -185 -290 -251 0 -43 36 -86 81 -97 70 -17 389 55 509 115 101
51 178 100 210 135 14 15 44 38 67 51 72 43 267 337 310 468 22 69 27 104 31
229 5 163 -9 308 -38 391 -47 138 -128 259 -213 320 -96 68 -145 86 -235 85
-42 0 -84 -3 -92 -6z"/>
<path d="M16670 15959 c-192 -52 -208 -60 -270 -126 -64 -68 -80 -107 -69
-167 10 -54 37 -86 101 -121 74 -40 86 -51 113 -104 59 -119 82 -312 51 -444
-29 -122 -117 -264 -220 -352 -65 -55 -209 -139 -278 -162 -28 -9 -65 -28 -81
-43 -26 -23 -30 -34 -30 -74 1 -26 9 -58 18 -72 21 -33 73 -64 106 -64 35 0
254 73 345 115 141 64 274 176 388 323 162 212 334 579 351 752 13 133 -40
281 -139 383 -128 132 -266 188 -386 156z"/>
<path d="M17974 15620 c-36 -14 -66 -61 -60 -94 13 -61 166 -408 210 -474 50
-74 119 -252 226 -578 115 -353 147 -537 156 -887 4 -158 12 -290 20 -332 8
-38 14 -96 14 -129 0 -116 -77 -895 -101 -1016 -33 -169 -144 -522 -239 -760
-313 -787 -847 -1667 -1265 -2085 -386 -386 -969 -748 -1395 -865 -69 -20
-256 -35 -540 -46 -164 -6 -189 -4 -395 26 -164 24 -274 34 -435 40 -232 8
-247 11 -390 79 -83 40 -122 40 -161 2 -23 -23 -29 -38 -29 -70 0 -60 61 -125
139 -148 31 -9 74 -31 96 -50 52 -45 289 -160 340 -166 22 -2 92 -28 155 -57
135 -62 530 -258 546 -271 6 -5 38 -18 70 -29 32 -11 82 -36 110 -54 117 -78
201 -85 320 -27 165 80 492 284 832 518 335 231 515 391 1205 1073 389 384
432 435 587 680 78 122 209 354 305 535 32 61 77 146 100 190 24 44 68 131 99
194 32 62 59 111 61 109 9 -9 -30 -161 -67 -258 -60 -159 -285 -588 -414 -791
-64 -100 -113 -154 -215 -235 -59 -46 -110 -91 -113 -100 -12 -31 -6 -77 14
-109 23 -37 48 -47 89 -35 28 8 446 294 844 579 179 127 239 176 325 266 250
260 347 393 521 713 94 172 96 181 40 238 -27 28 -52 44 -67 44 -17 0 -54 -27
-116 -83 -140 -128 -217 -188 -266 -210 -54 -24 -267 -58 -295 -47 -12 4 -34
19 -51 33 -55 46 -107 77 -130 77 -12 0 -37 -12 -55 -27 -37 -32 -38 -33 46
97 234 360 638 796 908 978 133 90 372 199 847 386 135 53 255 101 268 106 19
8 22 17 22 69 0 85 -4 87 -158 73 -156 -14 -394 -54 -783 -132 -381 -76 -458
-95 -546 -135 l-73 -34 -11 42 c-7 27 -9 77 -4 138 9 129 -6 209 -122 679
-108 439 -251 901 -369 1195 -35 87 -351 714 -517 1025 -79 149 -93 165 -133
150z"/>
<path d="M7141 15414 c-30 -38 -26 -64 19 -132 54 -81 169 -186 280 -258 329
-213 406 -271 627 -471 380 -344 778 -768 1137 -1209 339 -416 394 -495 535
-774 97 -191 129 -266 171 -400 29 -91 66 -188 82 -217 38 -67 72 -232 92
-438 42 -429 60 -720 60 -960 1 -451 -42 -634 -274 -1165 -216 -494 -252 -584
-246 -614 16 -78 82 -89 150 -26 90 84 279 349 398 561 228 404 276 499 297
595 11 49 38 141 60 204 45 125 64 216 112 535 27 178 33 247 37 452 4 220 2
252 -17 335 -14 63 -23 158 -30 293 -11 225 -2 193 -149 545 -175 419 -201
471 -365 722 -322 492 -621 826 -1093 1219 -255 213 -762 582 -924 673 -137
78 -220 134 -360 246 -122 97 -215 156 -396 252 -129 67 -170 74 -203 32z"/>
<path d="M21693 15056 c-17 -8 -36 -24 -42 -35 -25 -45 47 -129 147 -170 26
-11 142 -165 293 -390 69 -103 96 -174 155 -406 43 -166 42 -214 -6 -302 -49
-92 -123 -178 -173 -202 -25 -12 -97 -33 -161 -46 -113 -24 -127 -25 -564 -25
-418 0 -449 -1 -475 -19 -15 -10 -38 -16 -52 -14 -59 12 -88 -82 -40 -127 24
-23 35 -25 198 -31 185 -8 361 -30 602 -76 173 -33 498 -134 725 -225 172 -70
294 -133 446 -233 107 -71 123 -85 94 -80 -19 2 -106 14 -193 25 -87 11 -217
32 -290 46 -73 14 -171 31 -220 39 -121 19 -528 39 -667 32 -129 -6 -429 -43
-476 -58 -35 -11 -144 -119 -144 -143 0 -26 30 -46 68 -46 72 0 469 -20 602
-30 271 -21 485 -63 720 -140 310 -102 545 -219 855 -426 193 -129 205 -138
205 -150 0 -5 12 -15 28 -21 15 -7 99 -80 188 -162 127 -118 180 -175 250
-272 110 -151 128 -169 169 -169 92 0 105 79 75 445 -60 736 -80 824 -319
1423 -143 356 -294 628 -505 907 -230 304 -755 733 -1145 933 -80 42 -172 93
-203 114 -68 45 -101 53 -145 34z"/>
<path d="M6022 14497 c-13 -14 -22 -36 -22 -55 0 -27 15 -44 138 -149 75 -66
191 -164 257 -218 520 -429 618 -531 836 -865 248 -380 284 -442 363 -638 73
-180 245 -703 315 -961 24 -88 79 -617 114 -1096 2 -27 -2 -115 -9 -195 -15
-166 -17 -400 -4 -510 6 -59 13 -78 31 -93 33 -27 87 -19 113 16 20 27 21 41
22 250 1 194 4 241 28 375 39 226 52 274 107 409 39 97 49 134 49 180 0 77 32
228 59 281 40 79 42 88 19 117 -19 25 -20 34 -13 138 11 166 6 237 -36 492
-16 97 -27 132 -57 185 -51 92 -82 157 -103 219 -28 79 -75 162 -221 383 -101
153 -144 210 -195 254 -37 33 -90 95 -125 147 -46 68 -113 142 -272 297 -437
427 -647 616 -716 644 -25 10 -61 37 -84 64 -26 28 -117 96 -241 178 -284 186
-310 197 -353 151z"/>
<path d="M17154 14272 c-28 -10 -62 -25 -75 -34 -45 -30 -190 -171 -219 -212
-39 -57 -70 -154 -70 -217 0 -45 4 -55 34 -85 42 -42 78 -44 132 -8 35 24 41
25 78 14 79 -23 224 -99 244 -127 50 -72 52 -144 8 -254 -34 -86 -34 -138 0
-179 l27 -31 96 2 c53 1 108 -3 123 -9 49 -20 123 -177 137 -293 7 -48 5 -104
-5 -186 -20 -163 -28 -190 -88 -323 -74 -161 -88 -203 -93 -290 -5 -70 -3 -77
20 -102 14 -15 38 -30 53 -34 47 -12 66 9 105 120 16 44 35 71 78 112 45 42
76 88 150 221 52 92 105 183 120 201 48 62 61 87 82 156 58 194 85 449 64 610
-27 204 -60 331 -111 424 -80 148 -122 208 -198 280 -220 209 -504 309 -692
244z"/>
<path d="M11213 12920 c-23 -5 -56 -16 -73 -25 -63 -33 -172 -166 -229 -281
-40 -81 -83 -237 -79 -288 4 -51 29 -66 112 -66 55 0 61 2 95 38 20 21 50 56
67 78 l31 39 79 -1 c65 0 92 -6 151 -31 96 -41 164 -92 206 -156 79 -122 90
-205 37 -302 -71 -128 -140 -232 -185 -275 -78 -75 -93 -124 -55 -185 26 -41
55 -47 137 -27 65 16 66 16 84 -6 25 -32 33 -98 26 -231 -11 -188 -29 -270
-100 -456 -100 -261 -133 -334 -175 -384 -50 -59 -62 -83 -62 -119 0 -36 48
-92 80 -92 32 0 100 51 211 158 179 171 322 379 482 697 165 329 217 529 217
835 0 449 -155 783 -458 983 -39 27 -100 60 -134 75 -59 25 -74 26 -243 28
-99 2 -199 -1 -222 -6z"/>
<path d="M5200 12540 c-106 -13 -221 -55 -287 -104 -111 -84 -155 -140 -200
-256 -83 -213 -86 -249 -38 -437 33 -125 57 -168 172 -307 125 -153 157 -178
226 -184 81 -6 82 -4 82 222 l0 191 34 95 c36 101 89 215 125 263 13 19 51 44
102 67 44 21 96 51 115 67 34 30 34 30 94 18 66 -14 173 -59 227 -96 19 -13
79 -64 132 -114 53 -49 109 -95 124 -101 58 -25 99 24 87 101 -22 147 -270
421 -473 524 -84 43 -184 61 -326 60 -72 -1 -160 -5 -196 -9z"/>
<path d="M5550 11951 c-58 -11 -127 -50 -185 -103 -64 -58 -85 -112 -85 -215
0 -98 17 -151 64 -198 122 -122 285 -114 423 21 72 71 97 128 97 224 1 59 -4
84 -21 116 -51 96 -197 173 -293 155z"/>
<path d="M5940 11450 c-9 -4 -35 -36 -60 -70 -35 -49 -56 -67 -105 -89 -140
-66 -224 -63 -293 11 -46 50 -79 51 -126 3 -40 -40 -52 -93 -42 -188 8 -80 38
-140 102 -204 63 -64 135 -89 223 -79 73 9 120 33 209 107 78 64 137 145 226
310 61 114 61 140 -1 179 -47 30 -102 39 -133 20z"/>
<path d="M2630 10423 c-57 -21 -61 -55 -28 -216 20 -97 21 -112 8 -155 -25
-87 -25 -131 1 -158 31 -33 84 -33 118 0 30 28 128 56 192 56 24 -1 71 -7 104
-15 82 -20 129 -19 175 5 40 20 60 45 60 75 0 20 -91 156 -143 212 -38 41
-152 120 -232 160 -63 32 -210 52 -255 36z"/>
<path d="M7651 9684 c-17 -14 -39 -44 -50 -67 -10 -23 -51 -78 -91 -121 -49
-54 -83 -102 -105 -151 -19 -40 -67 -114 -113 -171 -244 -303 -518 -473 -883
-548 -369 -75 -540 -57 -987 103 -62 22 -145 56 -183 76 -176 89 -419 260
-619 434 -123 107 -284 213 -483 316 -206 106 -292 128 -335 82 -34 -36 -28
-74 17 -116 21 -20 146 -97 277 -171 245 -139 327 -200 390 -291 51 -75 637
-589 809 -711 155 -110 310 -168 614 -228 232 -46 281 -49 331 -18 19 11 114
41 210 64 120 30 201 56 257 84 93 46 290 174 407 263 156 121 307 350 582
884 105 202 111 231 68 282 -32 39 -71 41 -113 5z"/>
<path d="M683 9166 c-136 -43 -259 -202 -315 -411 -18 -67 -21 -109 -22 -255
-1 -169 0 -177 27 -247 30 -75 84 -166 146 -243 20 -25 86 -106 147 -180 137
-168 145 -180 174 -260 34 -97 76 -175 106 -199 l27 -21 -35 0 c-20 0 -40 -6
-46 -12 -15 -19 -32 -191 -32 -322 0 -99 5 -134 34 -248 37 -143 174 -541 241
-703 32 -77 87 -180 108 -202 27 -30 89 -31 117 -3 34 34 27 76 -66 417 -45
164 -63 272 -84 485 -10 99 -9 124 4 169 9 29 16 80 16 113 l0 60 -87 86 c-49
47 -98 102 -109 122 l-22 36 29 28 c53 51 42 83 -136 379 -184 306 -233 428
-222 560 8 91 31 176 63 230 21 36 35 48 82 66 151 57 451 23 711 -80 104 -42
281 -119 709 -310 155 -69 313 -132 365 -146 51 -14 202 -43 337 -65 364 -61
394 -67 535 -125 172 -70 256 -95 319 -95 98 0 103 48 17 177 -149 221 -229
279 -781 568 -409 214 -864 440 -940 467 -86 31 -459 140 -538 158 -62 14
-133 8 -242 -20 -101 -26 -148 -25 -340 10 -179 33 -233 36 -297 16z"/>
<path d="M11202 8897 c-51 -54 -7 -140 105 -205 83 -48 252 -111 608 -227 484
-157 749 -260 1155 -447 262 -122 619 -312 606 -325 -2 -2 -68 18 -147 43
l-144 47 -160 1 c-188 1 -233 -11 -289 -76 -89 -103 -65 -261 55 -372 63 -59
175 -140 290 -211 l73 -45 -42 0 c-96 0 -225 -81 -263 -165 -38 -84 -17 -220
54 -345 40 -72 139 -169 202 -199 28 -13 62 -35 76 -48 14 -13 59 -42 100 -63
l74 -39 -225 -1 -225 0 -200 51 c-412 104 -498 135 -952 345 -63 29 -158 85
-383 229 -86 55 -164 98 -236 131 -50 22 -105 59 -151 99 -40 35 -100 78 -134
96 -49 27 -79 54 -146 134 -88 105 -114 124 -176 125 -63 0 -77 -13 -77 -71 0
-62 26 -102 135 -209 42 -41 181 -190 308 -330 263 -289 341 -370 355 -370 5
0 7 -11 4 -25 -7 -37 22 -62 87 -76 73 -15 229 -91 307 -150 118 -89 156 -111
210 -124 29 -7 82 -31 116 -53 89 -58 195 -98 396 -148 429 -108 936 -163
1642 -181 361 -9 985 30 1103 68 47 15 108 22 257 29 264 12 293 16 384 45 64
20 99 25 188 25 99 0 116 3 182 30 81 34 103 53 136 120 28 55 38 161 20 215
-7 21 -41 69 -76 107 -35 38 -80 99 -100 136 -20 37 -56 97 -80 133 -55 83
-244 280 -368 384 -52 44 -95 86 -95 93 -1 6 -7 12 -13 12 -7 0 -58 36 -113
81 -288 231 -589 412 -1145 688 -270 134 -752 359 -860 402 -279 109 -813 284
-1008 329 -207 48 -258 62 -492 140 -248 82 -726 190 -844 190 -52 0 -66 -4
-84 -23z"/>
<path d="M3945 8345 c-22 -8 -57 -32 -77 -54 -48 -50 -48 -69 -7 -238 30 -122
31 -135 25 -261 -3 -74 -8 -138 -11 -143 -3 -4 -15 1 -25 11 -43 43 -78 26
-190 -90 -64 -65 -103 -96 -155 -123 -92 -46 -210 -82 -346 -107 -118 -21
-160 -19 -354 16 -72 14 -127 16 -278 11 l-189 -5 -96 -46 c-138 -65 -167 -71
-244 -49 -89 25 -305 25 -413 0 -173 -40 -283 -119 -322 -230 -26 -76 -24
-206 6 -272 39 -88 110 -148 220 -185 50 -16 86 -20 206 -20 102 0 166 -5 211
-16 57 -15 88 -15 272 -5 371 21 430 29 476 60 107 73 181 96 484 146 204 33
239 42 272 70 8 7 46 22 83 35 120 39 240 178 319 370 l27 65 1 -62 c0 -153
43 -330 116 -483 124 -260 215 -399 285 -436 33 -17 58 -8 83 28 24 33 20 60
-19 135 -20 37 -40 95 -46 128 -13 72 -7 327 11 439 12 75 13 77 25 49 15 -35
52 -53 109 -53 36 0 54 8 111 50 67 50 83 55 185 64 30 2 100 19 155 37 88 29
112 33 205 32 188 -1 310 -33 715 -188 83 -32 163 -69 178 -81 24 -20 40 -24
101 -24 63 0 108 -11 327 -79 324 -101 386 -117 543 -136 89 -11 163 -28 245
-55 171 -57 423 -98 891 -144 712 -71 939 -78 1415 -41 505 39 694 62 1170
145 139 24 173 34 188 51 19 24 22 55 8 92 -18 46 -56 50 -316 32 -130 -9
-260 -21 -288 -27 -129 -26 -669 -17 -834 13 -31 6 -83 24 -115 40 -36 18 -86
33 -127 38 -54 7 -118 28 -139 46 -5 5 72 74 128 115 27 19 92 61 145 93 75
46 108 74 155 130 32 40 105 108 161 152 261 204 299 236 359 305 75 85 149
160 277 280 121 113 160 192 115 233 -10 10 -31 17 -46 17 -57 0 -102 -31
-231 -164 -136 -139 -258 -237 -359 -288 -32 -16 -97 -54 -143 -84 -187 -120
-428 -225 -717 -311 -122 -36 -232 -69 -246 -73 -14 -4 -61 -24 -105 -43 -113
-50 -191 -68 -335 -77 -69 -5 -264 -30 -435 -55 -475 -72 -671 -72 -1060 1
-261 49 -481 109 -645 177 -238 98 -556 243 -895 408 -137 66 -178 82 -210 80
-22 -1 -107 -1 -190 -1 -132 0 -154 -2 -182 -20 -47 -28 -64 -71 -73 -179 -10
-118 -40 -211 -87 -271 -20 -25 -49 -64 -66 -87 -17 -24 -32 -41 -34 -40 -1 2
17 102 41 223 65 321 79 428 74 569 -5 141 -19 181 -99 281 -43 54 -58 66
-102 79 -64 19 -218 19 -272 0z"/>
<path d="M16455 8251 c-33 -17 -123 -80 -200 -141 -132 -105 -156 -119 -439
-260 -297 -149 -391 -208 -461 -292 -28 -33 -26 -63 7 -134 28 -61 51 -77 178
-132 155 -66 198 -89 244 -128 22 -19 49 -34 61 -34 12 0 78 -28 146 -61 153
-76 298 -139 317 -139 8 0 56 -17 106 -39 61 -26 114 -40 161 -45 39 -4 118
-20 177 -36 105 -29 116 -30 455 -40 351 -10 597 -6 665 11 42 11 88 60 88 94
0 71 -122 343 -239 535 -218 355 -433 566 -731 719 -189 97 -313 143 -400 148
-69 4 -80 2 -135 -26z"/>
<path d="M5665 6966 c-99 -32 -179 -90 -266 -195 -30 -35 -83 -86 -118 -113
-69 -52 -211 -209 -316 -347 -52 -69 -75 -113 -125 -239 -115 -289 -161 -469
-181 -701 -10 -105 -9 -144 4 -233 18 -119 33 -156 73 -182 26 -18 37 -18 120
0 27 5 64 -10 230 -89 274 -131 412 -167 652 -167 151 0 245 18 366 71 373
165 351 158 622 199 120 18 227 41 285 60 52 17 123 36 159 41 42 6 80 20 110
39 26 17 54 30 64 30 31 0 84 28 193 101 262 175 433 320 595 506 53 61 105
111 123 119 40 16 87 69 119 132 36 72 90 131 154 169 74 45 132 101 132 129
0 31 -125 127 -155 118 -66 -19 -160 -59 -184 -80 -16 -13 -34 -24 -40 -24
-34 0 -258 -129 -294 -170 -26 -28 -197 -147 -328 -228 -145 -89 -405 -170
-617 -193 -114 -12 -194 -10 -610 18 -299 20 -363 15 -616 -49 -129 -32 -173
-39 -221 -35 -72 5 -205 50 -222 74 -22 29 -16 179 11 284 61 236 263 607 432
791 65 71 88 124 67 157 -13 21 -161 26 -218 7z"/>
</g>
</svg>
